<svg xmlns="http://www.w3.org/2000/svg" viewBox="0 0 624.54 289.24"><defs><style>.cls-1{fill:#fff;}</style></defs><title>Asset 13</title><g id="Layer_2" data-name="Layer 2"><g id="Layer_1-2" data-name="Layer 1"><path class="cls-1" d="M244.79,89H153.07A10,10,0,0,0,146,91.93l-44.14,44.14a10,10,0,0,0-2.93,7.07v91.72a10,10,0,0,0,2.93,7.07L146,286.07a10,10,0,0,0,7.07,2.93h91.72a10,10,0,0,0,7.07-2.93L296,241.93a10,10,0,0,0,2.93-7.07V143.14a10,10,0,0,0-2.93-7.07L251.86,91.93A10,10,0,0,0,244.79,89ZM246,220.93l-15.14,15.14a10,10,0,0,1-7.07,2.93H174.07a10,10,0,0,1-7.07-2.93l-15.14-15.14a10,10,0,0,1-2.93-7.07V164.14a10,10,0,0,1,2.93-7.07L167,141.93a10,10,0,0,1,7.07-2.93h49.72a10,10,0,0,1,7.07,2.93L246,157.07a10,10,0,0,1,2.93,7.07v49.72A10,10,0,0,1,246,220.93Z"/><rect class="cls-1" x="475.18" y="144.18" width="34.69" height="145.06" rx="4.76" ry="4.76"/><path class="cls-1" d="M624.54,258.53v26a4.76,4.76,0,0,1-4.76,4.76h-44.9a9.52,9.52,0,0,1-6.73-2.79L555.59,273.9a9.52,9.52,0,0,1-2.79-6.73V183.63a4.76,4.76,0,0,0-4.76-4.76h-8.61a4.76,4.76,0,0,1-4.76-4.76V148.95a4.76,4.76,0,0,1,4.76-4.76H548a4.76,4.76,0,0,0,4.76-4.76V93.76A4.76,4.76,0,0,1,557.56,89h25.16a4.76,4.76,0,0,1,4.76,4.76v45.66a4.76,4.76,0,0,0,4.76,4.76h9.4a4.76,4.76,0,0,1,4.76,4.76v25.16a4.76,4.76,0,0,1-4.76,4.76h-9.4a4.76,4.76,0,0,0-4.76,4.76V249a4.76,4.76,0,0,0,4.76,4.76h27.53A4.76,4.76,0,0,1,624.54,258.53Z"/><rect class="cls-1" x="475.18" y="89" width="34.69" height="34.69" rx="4.76" ry="4.76"/><path class="cls-1" d="M284.54,0H465a5,5,0,0,1,5,5V45.07a5,5,0,0,1-5,5H406a5,5,0,0,0-5,5V284a5,5,0,0,1-5,5h-41.2a5,5,0,0,1-5-5v-229a5,5,0,0,0-5-5H284.54a5,5,0,0,1-5-5V5A5,5,0,0,1,284.54,0Z"/><path class="cls-1" d="M49.93,5V284a5,5,0,0,1-5,5H5a5,5,0,0,1-5-5V29.17a10,10,0,0,1,2.92-7.06L22,2.94A10,10,0,0,1,29.12,0H44.93A5,5,0,0,1,49.93,5Z"/></g></g></svg>