<svg id="レイヤー_1" data-name="レイヤー 1" xmlns="http://www.w3.org/2000/svg" viewBox="0 0 340.16 340.16"><defs><style>.cls-1{fill:#fff;}</style></defs><title>isaax_w</title><path class="cls-1" d="M133.11,139.29a17.75,17.75,0,1,1-17.75-17.75A17.75,17.75,0,0,1,133.11,139.29Zm91.7-17.75a17.75,17.75,0,1,0,17.75,17.75A17.75,17.75,0,0,0,224.8,121.54ZM50.91,76.93a2.07,2.07,0,0,0-1.52-.67,2.12,2.12,0,0,0-.55.07A66.73,66.73,0,0,0,0,140.5a66,66,0,0,0,11.76,37.75,2.07,2.07,0,0,0,1.7.89l.27,0a2.07,2.07,0,0,0,1.68-1.34L51.34,79A2.06,2.06,0,0,0,50.91,76.93Zm136.91,62.35a37,37,0,0,1,37-37c.54,0,1.08,0,1.66,0h.1a2.07,2.07,0,0,0,1.95-1.36l4.15-11.39a2,2,0,0,0,.11-.47,26.62,26.62,0,0,0-25.69-33.6,26.44,26.44,0,0,0-8.52,1.41h0a1.77,1.77,0,0,1-2.34-1.49s0-.07,0-.1A62.38,62.38,0,0,0,174,14.28a2.07,2.07,0,0,0-3.27.88l-33.63,92.41a2.07,2.07,0,0,0,.69,2.35,37,37,0,0,1-22.46,66.33c-.54,0-1.08,0-1.66,0h-.1a2.07,2.07,0,0,0-1.95,1.36l-9.72,26.7a2.07,2.07,0,0,0,1.95,2.78h84.57a2.07,2.07,0,0,0,1.94-1.36L203,171a2.07,2.07,0,0,0-.69-2.35A37.22,37.22,0,0,1,187.83,139.29Zm-109.44,0a37,37,0,0,1,37-37c.54,0,1.09,0,1.66,0h.1a2.07,2.07,0,0,0,1.94-1.36l34.8-95.62a2.07,2.07,0,0,0-1.34-2.69,62.14,62.14,0,0,0-80.2,59.43,66.14,66.14,0,0,0,1,11.32,3.59,3.59,0,0,1,0,1.48L29.91,194.15a2.07,2.07,0,0,0,.83,2.45,66.3,66.3,0,0,0,35.82,10.45H79A2.07,2.07,0,0,0,81,205.69L93.59,171a2.08,2.08,0,0,0-.69-2.35A37.22,37.22,0,0,1,78.38,139.28Zm248.1-34a2.08,2.08,0,0,0-1.62-.78l-.33,0a2.07,2.07,0,0,0-1.61,1.34l-35.39,97.23a2.07,2.07,0,0,0,1.95,2.78,2,2,0,0,0,.41,0,62.71,62.71,0,0,0,36.6-100.55ZM306.73,88.89a62.64,62.64,0,0,0-51.41-3.22,2.07,2.07,0,0,0-1.21,1.23l-7.53,20.68a2.07,2.07,0,0,0,.69,2.35,37,37,0,0,1-22.46,66.33c-.54,0-1.09,0-1.66,0H223a2.07,2.07,0,0,0-1.95,1.36l-9.72,26.7a2.07,2.07,0,0,0,1.95,2.78h50.85a2.07,2.07,0,0,0,1.95-1.36L307.7,91.42A2.07,2.07,0,0,0,306.73,88.89Z"/><path class="cls-1" d="M25.52,247.87a1.7,1.7,0,0,1-1.7,1.7H13a1.7,1.7,0,0,1-1.7-1.7V237.1a1.7,1.7,0,0,1,1.7-1.7H23.82a1.7,1.7,0,0,1,1.7,1.7Zm0,17.57a1.7,1.7,0,0,0-1.7-1.7H13a1.7,1.7,0,0,0-1.7,1.7v64.63a1.7,1.7,0,0,0,1.7,1.7H23.82a1.7,1.7,0,0,0,1.7-1.7Zm33.29,14.9a28.61,28.61,0,0,1,12.07-2.43h29.48a1.7,1.7,0,0,0,1.7-1.7V265.45a1.7,1.7,0,0,0-1.7-1.7H70.88c-17.78,0-31.19,9.14-31.19,21.26v3.25a1.76,1.76,0,0,0,1,1.57L83,312.2a1.68,1.68,0,0,1-.05,3,28.62,28.62,0,0,1-12.07,2.43H41.39a1.7,1.7,0,0,0-1.7,1.7v10.77a1.7,1.7,0,0,0,1.7,1.7H70.87c17.78,0,31.19-9.14,31.19-21.26v-3.25a1.75,1.75,0,0,0-1-1.57L58.75,283.33a1.68,1.68,0,0,1,.05-3Zm88.6-16.6H117.93a1.7,1.7,0,0,0-1.7,1.7v10.77a1.7,1.7,0,0,0,1.7,1.7H147.4c10.55,0,17,4.59,17,7.09v25.51c0,2.5-6.46,7.09-17,7.09H132.09a1.7,1.7,0,0,1-1.69-1.7v-4c0-2.5,6.46-7.09,17-7.09H157a1.7,1.7,0,0,0,1.7-1.7V292.38a1.7,1.7,0,0,0-1.7-1.7h-9.63c-17.78,0-31.18,9.14-31.18,21.26v18.14a1.7,1.7,0,0,0,1.7,1.7H147.4c17.78,0,31.18-9.14,31.18-21.26V285C178.58,272.89,165.18,263.75,147.4,263.75Zm75.39,0H193.32a1.7,1.7,0,0,0-1.7,1.7v10.77a1.7,1.7,0,0,0,1.7,1.7H222.8c10.55,0,17,4.59,17,7.09v25.51c0,2.5-6.46,7.09-17,7.09H207.49a1.7,1.7,0,0,1-1.69-1.7v-4c0-2.5,6.46-7.09,17-7.09h9.63a1.7,1.7,0,0,0,1.7-1.7V292.38a1.7,1.7,0,0,0-1.7-1.7H222.8c-17.78,0-31.18,9.14-31.18,21.26v18.14a1.7,1.7,0,0,0,1.7,1.7H222.8c17.78,0,31.18-9.14,31.18-21.26V285C254,272.89,240.57,263.75,222.8,263.75Zm106,66.33a1.73,1.73,0,0,1-1.7,1.7H316.3a1.7,1.7,0,0,1-1.69-1.61v0c-.37-7.6-3.14-12.88-5.44-14.68L304,311.56a1.69,1.69,0,0,1,0-2.63l9.07-6.89a1.68,1.68,0,0,1,2,.13l2.7,2c6.37,4.9,10.64,14.38,11,25.87Zm-62.36-64.62c.38,11.5,4.66,21,11,25.88l2.7,2a1.67,1.67,0,0,0,2,.13l9.07-6.89a1.69,1.69,0,0,0,0-2.63l-5.17-3.92c-2.3-1.8-5.07-7.08-5.44-14.68v0a1.7,1.7,0,0,0-1.69-1.61H268.15a1.73,1.73,0,0,0-1.7,1.7Zm60.66-1.7H316.33a1.7,1.7,0,0,0-1.7,1.7h0c-.35,7.32-2.91,12.42-5.16,14.41l-32,24.31c-6.36,4.9-10.6,14.38-11,25.88v0a1.7,1.7,0,0,0,1.7,1.7h10.78a1.7,1.7,0,0,0,1.7-1.7h0c.36-7.61,3.12-12.83,5.42-14.64l31.77-24.08c6.36-4.9,10.6-14.38,11-25.87v0A1.7,1.7,0,0,0,327.11,263.75Z"/></svg>